<svg width="152" height="182" viewBox="0 0 152 182" fill="none" xmlns="http://www.w3.org/2000/svg">
<path d="M0 18C0 8.05887 8.05887 0 18 0H133C142.941 0 151 8.05888 151 18V161C151 170.941 142.941 179 133 179H18C8.05887 179 0 170.941 0 161V18Z" fill="#A26400" fill-opacity="0.68"/>
<g filter="url(#filter0_dd_21_39)">
<path fill-rule="evenodd" clip-rule="evenodd" d="M45.5258 128.273H106.169V89.4411C117.195 81.5129 132.632 60.8994 106.169 41.8716C103.719 40.0918 97.0727 37.6001 90.0895 41.8716C85.6484 36.8558 73.6423 29.8337 61.146 41.8716C59.3084 40.0918 53.6116 37.6001 45.5258 41.8716C34.0403 48.6673 17.9606 67.6951 45.5258 89.4411V128.273ZM98.8185 109.828H52.8765V85.0725C39.2777 78.8593 37.1031 69.5396 37.7156 65.6564C38.4507 50.1235 49.9668 46.5639 55.633 46.7257L52.8765 52.5505C51.0388 65.3651 56.3987 64.0384 59.3084 61.7732C57.8382 47.7936 70.0282 42.6807 76.3069 41.8716C88.4356 43.8133 92.6929 55.9483 93.3054 61.7732C100.289 66.433 99.8905 57.5663 98.8185 52.5505C90.3652 43.2308 100.197 46.0785 106.169 48.6673C124.178 68.4717 108.773 81.1893 98.8185 85.0725V109.828Z" fill="#920000"/>
<path fill-rule="evenodd" clip-rule="evenodd" d="M45.5258 128.273H106.169V89.4411C117.195 81.5129 132.632 60.8994 106.169 41.8716C103.719 40.0918 97.0727 37.6001 90.0895 41.8716C85.6484 36.8558 73.6423 29.8337 61.146 41.8716C59.3084 40.0918 53.6116 37.6001 45.5258 41.8716C34.0403 48.6673 17.9606 67.6951 45.5258 89.4411V128.273ZM98.8185 109.828H52.8765V85.0725C39.2777 78.8593 37.1031 69.5396 37.7156 65.6564C38.4507 50.1235 49.9668 46.5639 55.633 46.7257L52.8765 52.5505C51.0388 65.3651 56.3987 64.0384 59.3084 61.7732C57.8382 47.7936 70.0282 42.6807 76.3069 41.8716C88.4356 43.8133 92.6929 55.9483 93.3054 61.7732C100.289 66.433 99.8905 57.5663 98.8185 52.5505C90.3652 43.2308 100.197 46.0785 106.169 48.6673C124.178 68.4717 108.773 81.1893 98.8185 85.0725V109.828Z" fill="black"/>
<path fill-rule="evenodd" clip-rule="evenodd" d="M45.5258 128.273H106.169V89.4411C117.195 81.5129 132.632 60.8994 106.169 41.8716C103.719 40.0918 97.0727 37.6001 90.0895 41.8716C85.6484 36.8558 73.6423 29.8337 61.146 41.8716C59.3084 40.0918 53.6116 37.6001 45.5258 41.8716C34.0403 48.6673 17.9606 67.6951 45.5258 89.4411V128.273ZM98.8185 109.828H52.8765V85.0725C39.2777 78.8593 37.1031 69.5396 37.7156 65.6564C38.4507 50.1235 49.9668 46.5639 55.633 46.7257L52.8765 52.5505C51.0388 65.3651 56.3987 64.0384 59.3084 61.7732C57.8382 47.7936 70.0282 42.6807 76.3069 41.8716C88.4356 43.8133 92.6929 55.9483 93.3054 61.7732C100.289 66.433 99.8905 57.5663 98.8185 52.5505C90.3652 43.2308 100.197 46.0785 106.169 48.6673C124.178 68.4717 108.773 81.1893 98.8185 85.0725V109.828Z" fill="black"/>
<path d="M52.8765 109.828H98.8185V85.0725C108.773 81.1893 124.178 68.4717 106.169 48.6673C100.197 46.0785 90.3652 43.2308 98.8185 52.5505C99.8905 57.5663 100.289 66.433 93.3054 61.7732C92.6929 55.9483 88.4356 43.8133 76.3069 41.8716C70.0282 42.6807 57.8382 47.7936 59.3084 61.7732C56.3987 64.0384 51.0388 65.3651 52.8765 52.5505L55.633 46.7257C49.9668 46.5639 38.4507 50.1235 37.7156 65.6564C37.1031 69.5396 39.2777 78.8593 52.8765 85.0725V109.828Z" fill="#920000"/>
<path d="M52.8765 109.828H98.8185V85.0725C108.773 81.1893 124.178 68.4717 106.169 48.6673C100.197 46.0785 90.3652 43.2308 98.8185 52.5505C99.8905 57.5663 100.289 66.433 93.3054 61.7732C92.6929 55.9483 88.4356 43.8133 76.3069 41.8716C70.0282 42.6807 57.8382 47.7936 59.3084 61.7732C56.3987 64.0384 51.0388 65.3651 52.8765 52.5505L55.633 46.7257C49.9668 46.5639 38.4507 50.1235 37.7156 65.6564C37.1031 69.5396 39.2777 78.8593 52.8765 85.0725V109.828Z" fill="black"/>
<path d="M52.8765 109.828H98.8185V85.0725C108.773 81.1893 124.178 68.4717 106.169 48.6673C100.197 46.0785 90.3652 43.2308 98.8185 52.5505C99.8905 57.5663 100.289 66.433 93.3054 61.7732C92.6929 55.9483 88.4356 43.8133 76.3069 41.8716C70.0282 42.6807 57.8382 47.7936 59.3084 61.7732C56.3987 64.0384 51.0388 65.3651 52.8765 52.5505L55.633 46.7257C49.9668 46.5639 38.4507 50.1235 37.7156 65.6564C37.1031 69.5396 39.2777 78.8593 52.8765 85.0725V109.828Z" fill="white"/>
<path d="M15.6635 159.825H135.572C133.734 160.795 131.162 163.708 135.572 167.591H15.6635C13.3664 165.973 10.1504 162.154 15.6635 159.825Z" fill="#920000"/>
<path d="M15.6635 159.825H135.572C133.734 160.795 131.162 163.708 135.572 167.591H15.6635C13.3664 165.973 10.1504 162.154 15.6635 159.825Z" fill="black"/>
<path d="M15.6635 159.825H135.572C133.734 160.795 131.162 163.708 135.572 167.591H15.6635C13.3664 165.973 10.1504 162.154 15.6635 159.825Z" fill="white"/>
<path fill-rule="evenodd" clip-rule="evenodd" d="M6.01565 14.6891V164.193C5.70937 168.562 9.78289 176.328 28.5272 172.445H142.923C144.914 171.312 147.701 168.756 142.923 167.591V159.825C143.995 159.016 146.047 155.65 145.679 148.66V17C148.283 13.6022 148.803 1.68028 130.059 4.01022H15.6635C12.9069 5.30463 7.11826 9.25257 6.01565 14.6891ZM12.4475 152.544V14.6891C14.2852 11.1942 17.1949 10.9677 18.42 11.2913H139.247V81.9174V152.544H12.4475ZM135.572 159.825H15.6635C10.1504 162.154 13.3664 165.973 15.6635 167.591H135.572C131.162 163.708 133.734 160.795 135.572 159.825Z" fill="#920000"/>
<path fill-rule="evenodd" clip-rule="evenodd" d="M6.01565 14.6891V164.193C5.70937 168.562 9.78289 176.328 28.5272 172.445H142.923C144.914 171.312 147.701 168.756 142.923 167.591V159.825C143.995 159.016 146.047 155.65 145.679 148.66V17C148.283 13.6022 148.803 1.68028 130.059 4.01022H15.6635C12.9069 5.30463 7.11826 9.25257 6.01565 14.6891ZM12.4475 152.544V14.6891C14.2852 11.1942 17.1949 10.9677 18.42 11.2913H139.247V81.9174V152.544H12.4475ZM135.572 159.825H15.6635C10.1504 162.154 13.3664 165.973 15.6635 167.591H135.572C131.162 163.708 133.734 160.795 135.572 159.825Z" fill="black"/>
<path fill-rule="evenodd" clip-rule="evenodd" d="M6.01565 14.6891V164.193C5.70937 168.562 9.78289 176.328 28.5272 172.445H142.923C144.914 171.312 147.701 168.756 142.923 167.591V159.825C143.995 159.016 146.047 155.65 145.679 148.66V17C148.283 13.6022 148.803 1.68028 130.059 4.01022H15.6635C12.9069 5.30463 7.11826 9.25257 6.01565 14.6891ZM12.4475 152.544V14.6891C14.2852 11.1942 17.1949 10.9677 18.42 11.2913H139.247V81.9174V152.544H12.4475ZM135.572 159.825H15.6635C10.1504 162.154 13.3664 165.973 15.6635 167.591H135.572C131.162 163.708 133.734 160.795 135.572 159.825Z" fill="black"/>
<path d="M145.679 148.66C146.047 155.65 143.995 159.016 142.923 159.825V167.591C147.701 168.756 144.914 171.312 142.923 172.445H28.5272C9.78289 176.328 5.70937 168.562 6.01565 164.193V14.6891C7.11826 9.25257 12.9069 5.30463 15.6635 4.01022H130.059C148.803 1.68028 148.283 13.6022 145.679 17M145.679 148.66C145.679 95.0144 145.679 70.646 145.679 17M145.679 148.66V17M12.4475 14.6891V152.544H139.247V81.9174V11.2913H18.42C17.1949 10.9677 14.2852 11.1942 12.4475 14.6891ZM15.6635 159.825H135.572C133.734 160.795 131.162 163.708 135.572 167.591H15.6635C13.3664 165.973 10.1504 162.154 15.6635 159.825ZM45.5258 128.273H106.169V89.4411C117.195 81.5129 132.632 60.8994 106.169 41.8716C103.719 40.0918 97.0727 37.6001 90.0895 41.8716C85.6484 36.8558 73.6423 29.8337 61.146 41.8716C59.3084 40.0918 53.6116 37.6001 45.5258 41.8716C34.0403 48.6673 17.9606 67.6951 45.5258 89.4411V128.273ZM52.8765 109.828H98.8185V85.0725C108.773 81.1893 124.178 68.4717 106.169 48.6673C100.197 46.0785 90.3652 43.2308 98.8185 52.5505C99.8905 57.5663 100.289 66.433 93.3054 61.7732C92.6929 55.9483 88.4356 43.8133 76.3069 41.8716C70.0282 42.6807 57.8382 47.7936 59.3084 61.7732C56.3987 64.0384 51.0388 65.3651 52.8765 52.5505L55.633 46.7257C49.9668 46.5639 38.4507 50.1235 37.7156 65.6564C37.1031 69.5396 39.2777 78.8593 52.8765 85.0725V109.828Z" stroke="black"/>
</g>
<defs>
<filter id="filter0_dd_21_39" x="1.50006" y="3.2113" width="150" height="178.789" filterUnits="userSpaceOnUse" color-interpolation-filters="sRGB">
<feFlood flood-opacity="0" result="BackgroundImageFix"/>
<feColorMatrix in="SourceAlpha" type="matrix" values="0 0 0 0 0 0 0 0 0 0 0 0 0 0 0 0 0 0 127 0" result="hardAlpha"/>
<feOffset dy="4"/>
<feGaussianBlur stdDeviation="2"/>
<feComposite in2="hardAlpha" operator="out"/>
<feColorMatrix type="matrix" values="0 0 0 0 0 0 0 0 0 0 0 0 0 0 0 0 0 0 0.25 0"/>
<feBlend mode="normal" in2="BackgroundImageFix" result="effect1_dropShadow_21_39"/>
<feColorMatrix in="SourceAlpha" type="matrix" values="0 0 0 0 0 0 0 0 0 0 0 0 0 0 0 0 0 0 127 0" result="hardAlpha"/>
<feOffset dy="4"/>
<feGaussianBlur stdDeviation="2"/>
<feComposite in2="hardAlpha" operator="out"/>
<feColorMatrix type="matrix" values="0 0 0 0 0 0 0 0 0 0 0 0 0 0 0 0 0 0 0.25 0"/>
<feBlend mode="normal" in2="effect1_dropShadow_21_39" result="effect2_dropShadow_21_39"/>
<feBlend mode="normal" in="SourceGraphic" in2="effect2_dropShadow_21_39" result="shape"/>
</filter>
</defs>
</svg>
