<svg width="152" height="183" viewBox="0 0 152 183" fill="none" xmlns="http://www.w3.org/2000/svg">
<path d="M0 18.5C0 8.55887 8.05887 0.5 18 0.5H133C142.941 0.5 151 8.55888 151 18.5V161.5C151 171.441 142.941 179.5 133 179.5H18C8.05887 179.5 0 171.441 0 161.5V18.5Z" fill="#A21300" fill-opacity="0.68"/>
<g filter="url(#filter0_dd_21_40)">
<path d="M15.6635 160.325H135.572C133.734 161.295 131.162 164.208 135.572 168.091H15.6635C13.3664 166.473 10.1504 162.654 15.6635 160.325Z" fill="#920000"/>
<path d="M15.6635 160.325H135.572C133.734 161.295 131.162 164.208 135.572 168.091H15.6635C13.3664 166.473 10.1504 162.654 15.6635 160.325Z" fill="black"/>
<path d="M15.6635 160.325H135.572C133.734 161.295 131.162 164.208 135.572 168.091H15.6635C13.3664 166.473 10.1504 162.654 15.6635 160.325Z" fill="white"/>
<path fill-rule="evenodd" clip-rule="evenodd" d="M52.8765 110.328H98.8185V85.5725C108.773 81.6893 124.178 68.9717 106.169 49.1673C100.197 46.5785 90.3652 43.7308 98.8185 53.0505C99.8905 58.0663 100.289 66.933 93.3054 62.2732C92.6929 56.4483 88.4356 44.3133 76.3069 42.3716C70.0282 43.1807 57.8382 48.2936 59.3084 62.2732C56.3987 64.5384 51.0388 65.8651 52.8765 53.0505L55.633 47.2257C49.9668 47.0639 38.4507 50.6235 37.7156 66.1564C37.1031 70.0396 39.2777 79.3593 52.8765 85.5725V110.328Z" fill="#920000"/>
<path fill-rule="evenodd" clip-rule="evenodd" d="M52.8765 110.328H98.8185V85.5725C108.773 81.6893 124.178 68.9717 106.169 49.1673C100.197 46.5785 90.3652 43.7308 98.8185 53.0505C99.8905 58.0663 100.289 66.933 93.3054 62.2732C92.6929 56.4483 88.4356 44.3133 76.3069 42.3716C70.0282 43.1807 57.8382 48.2936 59.3084 62.2732C56.3987 64.5384 51.0388 65.8651 52.8765 53.0505L55.633 47.2257C49.9668 47.0639 38.4507 50.6235 37.7156 66.1564C37.1031 70.0396 39.2777 79.3593 52.8765 85.5725V110.328Z" fill="black"/>
<path fill-rule="evenodd" clip-rule="evenodd" d="M52.8765 110.328H98.8185V85.5725C108.773 81.6893 124.178 68.9717 106.169 49.1673C100.197 46.5785 90.3652 43.7308 98.8185 53.0505C99.8905 58.0663 100.289 66.933 93.3054 62.2732C92.6929 56.4483 88.4356 44.3133 76.3069 42.3716C70.0282 43.1807 57.8382 48.2936 59.3084 62.2732C56.3987 64.5384 51.0388 65.8651 52.8765 53.0505L55.633 47.2257C49.9668 47.0639 38.4507 50.6235 37.7156 66.1564C37.1031 70.0396 39.2777 79.3593 52.8765 85.5725V110.328Z" fill="white"/>
<path fill-rule="evenodd" clip-rule="evenodd" d="M45.5258 128.773H106.169V89.9411C117.195 82.0129 132.632 61.3994 106.169 42.3716C103.719 40.5918 97.0727 38.1001 90.0895 42.3716C85.6484 37.3558 73.6423 30.3337 61.146 42.3716C59.3084 40.5918 53.6116 38.1001 45.5258 42.3716C34.0403 49.1673 17.9606 68.1951 45.5258 89.9411V128.773ZM98.8185 110.328H52.8765V85.5725C39.2777 79.3593 37.1031 70.0396 37.7156 66.1564C38.4507 50.6235 49.9668 47.0639 55.633 47.2257L52.8765 53.0505C51.0388 65.8651 56.3987 64.5384 59.3084 62.2732C57.8382 48.2936 70.0282 43.1807 76.3069 42.3716C88.4356 44.3133 92.6929 56.4483 93.3054 62.2732C100.289 66.933 99.8905 58.0663 98.8185 53.0505C90.3652 43.7308 100.197 46.5785 106.169 49.1673C124.178 68.9717 108.773 81.6893 98.8185 85.5725V110.328Z" fill="#920000"/>
<path fill-rule="evenodd" clip-rule="evenodd" d="M45.5258 128.773H106.169V89.9411C117.195 82.0129 132.632 61.3994 106.169 42.3716C103.719 40.5918 97.0727 38.1001 90.0895 42.3716C85.6484 37.3558 73.6423 30.3337 61.146 42.3716C59.3084 40.5918 53.6116 38.1001 45.5258 42.3716C34.0403 49.1673 17.9606 68.1951 45.5258 89.9411V128.773ZM98.8185 110.328H52.8765V85.5725C39.2777 79.3593 37.1031 70.0396 37.7156 66.1564C38.4507 50.6235 49.9668 47.0639 55.633 47.2257L52.8765 53.0505C51.0388 65.8651 56.3987 64.5384 59.3084 62.2732C57.8382 48.2936 70.0282 43.1807 76.3069 42.3716C88.4356 44.3133 92.6929 56.4483 93.3054 62.2732C100.289 66.933 99.8905 58.0663 98.8185 53.0505C90.3652 43.7308 100.197 46.5785 106.169 49.1673C124.178 68.9717 108.773 81.6893 98.8185 85.5725V110.328Z" fill="black"/>
<path fill-rule="evenodd" clip-rule="evenodd" d="M45.5258 128.773H106.169V89.9411C117.195 82.0129 132.632 61.3994 106.169 42.3716C103.719 40.5918 97.0727 38.1001 90.0895 42.3716C85.6484 37.3558 73.6423 30.3337 61.146 42.3716C59.3084 40.5918 53.6116 38.1001 45.5258 42.3716C34.0403 49.1673 17.9606 68.1951 45.5258 89.9411V128.773ZM98.8185 110.328H52.8765V85.5725C39.2777 79.3593 37.1031 70.0396 37.7156 66.1564C38.4507 50.6235 49.9668 47.0639 55.633 47.2257L52.8765 53.0505C51.0388 65.8651 56.3987 64.5384 59.3084 62.2732C57.8382 48.2936 70.0282 43.1807 76.3069 42.3716C88.4356 44.3133 92.6929 56.4483 93.3054 62.2732C100.289 66.933 99.8905 58.0663 98.8185 53.0505C90.3652 43.7308 100.197 46.5785 106.169 49.1673C124.178 68.9717 108.773 81.6893 98.8185 85.5725V110.328Z" fill="black"/>
<path fill-rule="evenodd" clip-rule="evenodd" d="M6.01565 15.1891V164.693C5.70937 169.062 9.78289 176.828 28.5272 172.945H142.923C144.914 171.812 147.701 169.256 142.923 168.091V160.325C143.995 159.516 146.047 156.15 145.679 149.16V17.5C148.283 14.1022 148.803 2.18028 130.059 4.51022H15.6635C12.9069 5.80463 7.11826 9.75257 6.01565 15.1891ZM12.4475 153.044V15.1891C14.2852 11.6942 17.1949 11.4677 18.42 11.7913H139.247V82.4174V153.044H12.4475ZM135.572 160.325H15.6635C10.1504 162.654 13.3664 166.473 15.6635 168.091H135.572C131.162 164.208 133.734 161.295 135.572 160.325Z" fill="#920000"/>
<path fill-rule="evenodd" clip-rule="evenodd" d="M6.01565 15.1891V164.693C5.70937 169.062 9.78289 176.828 28.5272 172.945H142.923C144.914 171.812 147.701 169.256 142.923 168.091V160.325C143.995 159.516 146.047 156.15 145.679 149.16V17.5C148.283 14.1022 148.803 2.18028 130.059 4.51022H15.6635C12.9069 5.80463 7.11826 9.75257 6.01565 15.1891ZM12.4475 153.044V15.1891C14.2852 11.6942 17.1949 11.4677 18.42 11.7913H139.247V82.4174V153.044H12.4475ZM135.572 160.325H15.6635C10.1504 162.654 13.3664 166.473 15.6635 168.091H135.572C131.162 164.208 133.734 161.295 135.572 160.325Z" fill="black"/>
<path fill-rule="evenodd" clip-rule="evenodd" d="M6.01565 15.1891V164.693C5.70937 169.062 9.78289 176.828 28.5272 172.945H142.923C144.914 171.812 147.701 169.256 142.923 168.091V160.325C143.995 159.516 146.047 156.15 145.679 149.16V17.5C148.283 14.1022 148.803 2.18028 130.059 4.51022H15.6635C12.9069 5.80463 7.11826 9.75257 6.01565 15.1891ZM12.4475 153.044V15.1891C14.2852 11.6942 17.1949 11.4677 18.42 11.7913H139.247V82.4174V153.044H12.4475ZM135.572 160.325H15.6635C10.1504 162.654 13.3664 166.473 15.6635 168.091H135.572C131.162 164.208 133.734 161.295 135.572 160.325Z" fill="black"/>
<path d="M145.679 149.16C146.047 156.15 143.995 159.516 142.923 160.325V168.091C147.701 169.256 144.914 171.812 142.923 172.945H28.5272C9.78289 176.828 5.70937 169.062 6.01565 164.693V15.1891C7.11826 9.75257 12.9069 5.80463 15.6635 4.51022H130.059C148.803 2.18028 148.283 14.1022 145.679 17.5M145.679 149.16C145.679 95.5144 145.679 71.146 145.679 17.5M145.679 149.16V17.5M12.4475 15.1891V153.044H139.247V82.4174V11.7913H18.42C17.1949 11.4677 14.2852 11.6942 12.4475 15.1891ZM15.6635 160.325H135.572C133.734 161.295 131.162 164.208 135.572 168.091H15.6635C13.3664 166.473 10.1504 162.654 15.6635 160.325ZM45.5258 128.773H106.169V89.9411C117.195 82.0129 132.632 61.3994 106.169 42.3716C103.719 40.5918 97.0727 38.1001 90.0895 42.3716C85.6484 37.3558 73.6423 30.3337 61.146 42.3716C59.3084 40.5918 53.6116 38.1001 45.5258 42.3716C34.0403 49.1673 17.9606 68.1951 45.5258 89.9411V128.773ZM52.8765 110.328H98.8185V85.5725C108.773 81.6893 124.178 68.9717 106.169 49.1673C100.197 46.5785 90.3652 43.7308 98.8185 53.0505C99.8905 58.0663 100.289 66.933 93.3054 62.2732C92.6929 56.4483 88.4356 44.3133 76.3069 42.3716C70.0282 43.1807 57.8382 48.2936 59.3084 62.2732C56.3987 64.5384 51.0388 65.8651 52.8765 53.0505L55.633 47.2257C49.9668 47.0639 38.4507 50.6235 37.7156 66.1564C37.1031 70.0396 39.2777 79.3593 52.8765 85.5725V110.328Z" stroke="black"/>
</g>
<defs>
<filter id="filter0_dd_21_40" x="1.50006" y="3.7113" width="150" height="178.789" filterUnits="userSpaceOnUse" color-interpolation-filters="sRGB">
<feFlood flood-opacity="0" result="BackgroundImageFix"/>
<feColorMatrix in="SourceAlpha" type="matrix" values="0 0 0 0 0 0 0 0 0 0 0 0 0 0 0 0 0 0 127 0" result="hardAlpha"/>
<feOffset dy="4"/>
<feGaussianBlur stdDeviation="2"/>
<feComposite in2="hardAlpha" operator="out"/>
<feColorMatrix type="matrix" values="0 0 0 0 0 0 0 0 0 0 0 0 0 0 0 0 0 0 0.25 0"/>
<feBlend mode="normal" in2="BackgroundImageFix" result="effect1_dropShadow_21_40"/>
<feColorMatrix in="SourceAlpha" type="matrix" values="0 0 0 0 0 0 0 0 0 0 0 0 0 0 0 0 0 0 127 0" result="hardAlpha"/>
<feOffset dy="4"/>
<feGaussianBlur stdDeviation="2"/>
<feComposite in2="hardAlpha" operator="out"/>
<feColorMatrix type="matrix" values="0 0 0 0 0 0 0 0 0 0 0 0 0 0 0 0 0 0 0.25 0"/>
<feBlend mode="normal" in2="effect1_dropShadow_21_40" result="effect2_dropShadow_21_40"/>
<feBlend mode="normal" in="SourceGraphic" in2="effect2_dropShadow_21_40" result="shape"/>
</filter>
</defs>
</svg>
